<?xml version="1.0" encoding="utf-8"?>
<svg version="1.1" id="Layer_1" xmlns="http://www.w3.org/2000/svg" xmlns:xlink="http://www.w3.org/1999/xlink" x="0px" y="0px"
	 viewBox="0 0 200 200" style="enable-background:new 0 0 200 200;" xml:space="preserve">
<style type="text/css">
	.st0{font-family:'Righteous-Regular';}
	.st1{font-size:26.8145px;}
	.st2{fill:#FFFFFF;}
	.st3{fill:#F2F2F2;}
</style>
<text transform="matrix(1 0 0 1 42.04 103.751)" class="st0 st1">STRACY</text>
<text transform="matrix(1 0 0 1 42.04 54.751)" class="st2 st0 st1">STRACY</text>
<path d="M160.9,97.7v-6.9c0-0.5-0.3-1-0.8-1.3l-6-3.4c-0.5-0.3-1.1-0.3-1.5,0l-6,3.4c-0.5,0.3-0.8,0.8-0.8,1.3v6.9
	c0,0.5,0.3,1,0.8,1.3l6,3.4c0.5,0.3,1.1,0.3,1.5,0l6-3.4C160.6,98.7,160.9,98.2,160.9,97.7z"/>
<g>
	<path class="st3" d="M149.7,92.4c0-0.4,0.1-0.7,0.2-1.1c0.1-0.3,0.3-0.6,0.6-0.9c0.2-0.2,0.5-0.4,0.9-0.6s0.7-0.2,1.1-0.2h4.2v1.8
		h-4.2c-0.1,0-0.2,0-0.4,0.1c-0.1,0-0.2,0.1-0.3,0.2c-0.1,0.1-0.1,0.2-0.2,0.3c0,0.1-0.1,0.2-0.1,0.4c0,0.1,0,0.2,0.1,0.4
		c0,0.1,0.1,0.2,0.2,0.3c0.1,0.1,0.2,0.1,0.3,0.2c0.1,0,0.2,0.1,0.4,0.1h1.8c0.4,0,0.7,0.1,1.1,0.2c0.3,0.1,0.6,0.3,0.9,0.6
		c0.2,0.2,0.4,0.5,0.6,0.9c0.1,0.3,0.2,0.7,0.2,1.1c0,0.4-0.1,0.7-0.2,1.1c-0.1,0.3-0.3,0.6-0.6,0.9c-0.2,0.2-0.5,0.4-0.9,0.6
		c-0.3,0.1-0.7,0.2-1.1,0.2h-4.1V97h4.1c0.1,0,0.2,0,0.4-0.1c0.1,0,0.2-0.1,0.3-0.2c0.1-0.1,0.1-0.2,0.2-0.3c0-0.1,0.1-0.2,0.1-0.4
		c0-0.1,0-0.2-0.1-0.4c0-0.1-0.1-0.2-0.2-0.3c-0.1-0.1-0.2-0.1-0.3-0.2c-0.1,0-0.2-0.1-0.4-0.1h-1.8c-0.4,0-0.7-0.1-1.1-0.2
		s-0.6-0.3-0.9-0.6c-0.2-0.2-0.4-0.5-0.6-0.9C149.8,93.1,149.7,92.8,149.7,92.4z"/>
</g>
</svg>
